<svg xmlns="http://www.w3.org/2000/svg" version="1.1" xmlns:xlink="http://www.w3.org/1999/xlink" xmlns:svgjs="http://svgjs.dev/svgjs" width="1000" height="294" viewBox="0 0 1000 294"><g transform="matrix(1,0,0,1,0.16994382022460286,-0.6047999999999547)"><svg viewBox="0 0 356 105" data-background-color="#ffffff" preserveAspectRatio="xMidYMid meet" height="294" width="1000" xmlns="http://www.w3.org/2000/svg" xmlns:xlink="http://www.w3.org/1999/xlink"><g id="tight-bounds" transform="matrix(1,0,0,1,-0.06049999999996203,0.21599999999997976)"><svg viewBox="0 0 356.12052 104.56763640071988" height="104.56763640071988" width="356.12052"><g><svg viewBox="0 0 356.12052 104.56763640071988" height="104.56763640071988" width="356.12052"><g><svg viewBox="0 0 356.12052 104.56763640071988" height="104.56763640071988" width="356.12052"><g><path d="M0 104.568v-104.568h356.121v104.568z" fill="#ea3c12" stroke="transparent" stroke-width="0" rx="0%" data-fill-palette-color="tertiary"></path><path d="M3.283 101.284v-98.001h349.554v98.001z" fill="#ffffff" stroke="transparent" stroke-width="0" rx="0%" data-fill-palette-color="quaternary"></path><path d="M9.85 94.718v-84.868h336.421v84.868z" fill="#ea3c12" stroke="transparent" stroke-width="0" data-fill-palette-color="tertiary"></path></g><g transform="matrix(1,0,0,1,19.69974,19.69974)" id="textblocktransform"><svg viewBox="0 0 316.72104 65.16815640071988" height="65.16815640071988" width="316.72104" id="textblock"><g><svg viewBox="0 0 316.72104 65.16815640071988" height="65.16815640071988" width="316.72104"><g transform="matrix(1,0,0,1,0,0)"><svg width="316.72104" viewBox="3.75 -34.29999923706055 166.69000244140625 34.29999923706055" height="65.16815640071988" data-palette-color="#ffffff"><path d="M3.75 0L3.75-34.3 28.25-34.3 28.25-29.55 9.3-29.55 9.3-19.4 26.4-19.4 26.4-14.65 9.3-14.65 9.3 0 3.75 0ZM34.3 0L34.3-34.3 39.85-34.3 39.85-4.8 57.7-4.8 57.7 0 34.3 0ZM62.95 0L62.95-34.3 89.55-34.3 89.55-29.55 68.5-29.55 68.5-19.9 87.35-19.9 87.35-15.15 68.5-15.15 68.5-4.75 89.85-4.75 89.85 0 62.95 0ZM92.69 0L105.69-17.95 93.89-34.3 100.69-34.3 109.09-22.4 109.49-22.4 117.94-34.3 124.44-34.3 112.64-18.05 125.69 0 118.94 0 109.24-13.7 108.89-13.7 99.19 0 92.69 0ZM130.09 0L130.09-34.3 135.64-34.3 135.64 0 130.09 0ZM143.54 0L143.54-34.3 170.14-34.3 170.14-29.55 149.09-29.55 149.09-19.9 167.94-19.9 167.94-15.15 149.09-15.15 149.09-4.75 170.44-4.75 170.44 0 143.54 0Z" opacity="1" transform="matrix(1,0,0,1,0,0)" fill="#ffffff" class="wordmark-text-0" data-fill-palette-color="quaternary" id="text-0"></path></svg></g></svg></g></svg></g></svg></g><g></g></svg></g><defs></defs></svg><rect width="356.12052" height="104.56763640071988" fill="none" stroke="none" visibility="hidden"></rect></g></svg></g></svg>